<svg id="svg" version="1.1" xmlns="http://www.w3.org/2000/svg" xmlns:xlink="http://www.w3.org/1999/xlink" width="400" height="400" viewBox="0, 0, 400,400"><g id="svgg"><path id="path0" d="M275.800 131.645 C 274.260 131.850,272.934 132.210,272.854 132.447 C 272.773 132.684,272.188 133.469,271.554 134.192 C 270.189 135.746,270.141 136.141,271.191 137.191 C 271.626 137.626,272.235 138.588,272.545 139.330 C 273.012 140.447,273.579 140.873,275.854 141.816 L 278.600 142.955 294.400 143.212 C 303.090 143.353,312.270 143.363,314.801 143.234 L 319.402 143.000 322.879 140.284 C 326.246 137.654,328.400 135.510,328.400 134.788 C 328.400 133.051,326.599 131.689,324.200 131.611 C 315.870 131.339,277.908 131.366,275.800 131.645 M83.842 140.017 C 83.080 140.686,82.342 141.754,82.202 142.389 C 82.063 143.025,81.711 143.742,81.421 143.982 C 81.096 144.252,80.785 145.873,80.610 148.208 C 80.453 150.291,80.069 153.121,79.755 154.498 C 79.441 155.874,78.921 159.340,78.599 162.200 C 78.277 165.060,77.749 168.930,77.425 170.800 C 75.309 183.024,75.491 186.701,78.374 189.976 L 79.586 191.353 80.493 190.534 C 80.992 190.084,81.940 189.402,82.600 189.019 C 85.942 187.079,87.147 184.404,88.193 176.600 C 88.966 170.839,89.634 166.415,90.822 159.200 C 91.310 156.230,91.843 151.820,92.006 149.400 L 92.303 145.000 90.091 142.282 C 86.883 138.339,86.083 138.049,83.842 140.017 M264.932 139.483 C 264.221 139.837,263.361 140.748,262.973 141.557 C 262.593 142.351,262.126 143.317,261.935 143.704 C 261.744 144.091,261.399 145.801,261.167 147.504 C 260.935 149.207,260.496 152.220,260.191 154.200 C 259.886 156.180,259.428 159.420,259.172 161.400 C 258.917 163.380,258.350 166.980,257.912 169.400 C 256.792 175.594,256.453 178.795,256.425 183.453 L 256.400 187.506 258.047 189.153 C 260.272 191.378,260.676 191.294,264.342 187.841 C 267.235 185.117,267.713 183.412,269.793 168.400 C 270.792 161.189,270.903 160.621,271.458 159.811 C 271.785 159.336,272.004 157.903,272.010 156.211 C 272.016 154.665,272.195 151.609,272.408 149.421 C 272.787 145.514,272.416 142.800,271.502 142.800 C 271.317 142.800,270.336 141.900,269.323 140.800 C 267.341 138.648,266.883 138.511,264.932 139.483 M330.800 140.271 C 330.030 140.855,328.742 141.953,327.938 142.710 C 327.134 143.468,326.079 144.294,325.593 144.544 C 324.377 145.173,323.066 149.524,322.438 155.017 C 322.162 157.428,321.698 160.030,321.406 160.800 C 321.114 161.570,320.668 165.335,320.416 169.166 C 320.164 172.998,319.795 176.435,319.597 176.805 C 318.580 178.706,318.237 186.375,319.126 187.322 C 319.598 187.824,320.197 188.857,320.457 189.617 C 321.121 191.553,321.445 191.645,323.677 190.524 C 329.302 187.698,330.195 185.372,332.395 167.800 C 333.772 156.801,334.480 151.886,335.026 149.539 C 337.032 140.920,335.211 136.926,330.800 140.271 M184.845 188.715 C 180.893 188.824,180.602 188.892,178.889 190.115 C 173.186 194.184,172.577 196.005,175.854 199.200 L 177.290 200.600 198.545 200.600 C 222.252 200.600,221.914 200.635,224.861 197.910 C 228.141 194.878,228.281 193.942,225.900 190.964 L 224.200 188.838 209.000 188.806 C 200.640 188.788,192.720 188.735,191.400 188.687 C 190.080 188.639,187.130 188.652,184.845 188.715 M78.779 198.755 C 76.252 199.751,73.078 203.582,72.613 206.200 C 72.456 207.080,72.189 207.980,72.018 208.200 C 71.847 208.420,71.588 209.860,71.442 211.400 C 70.967 216.422,69.935 223.384,69.559 224.102 C 69.357 224.487,69.019 226.827,68.808 229.302 C 68.597 231.776,68.144 235.600,67.801 237.800 C 66.568 245.710,66.542 248.856,67.700 250.202 L 68.709 251.375 70.228 250.587 C 72.908 249.198,77.950 244.078,78.254 242.437 C 78.401 241.647,78.772 240.614,79.079 240.142 C 79.405 239.641,79.800 237.260,80.031 234.409 C 80.248 231.728,80.709 228.154,81.055 226.467 C 81.773 222.967,81.738 223.207,82.608 216.000 C 82.967 213.030,83.427 209.949,83.630 209.154 C 84.654 205.146,83.907 201.696,81.737 200.416 C 81.002 199.982,80.400 199.460,80.400 199.256 C 80.400 198.737,79.518 198.464,78.779 198.755 M167.547 199.710 C 164.375 201.931,163.102 203.930,162.339 207.890 C 161.968 209.817,161.474 212.025,161.241 212.797 C 161.009 213.569,160.635 216.941,160.411 220.291 C 160.186 223.640,159.735 227.150,159.407 228.091 C 159.080 229.031,158.805 230.790,158.798 232.000 C 158.790 233.210,158.502 235.640,158.157 237.400 C 155.479 251.053,157.329 253.557,164.936 246.577 C 168.226 243.558,169.281 241.296,169.961 235.800 C 170.234 233.600,170.727 230.270,171.058 228.400 C 171.763 224.414,172.115 221.992,172.971 215.200 C 173.318 212.450,173.791 208.918,174.022 207.352 C 174.918 201.270,171.344 197.051,167.547 199.710 M258.565 199.111 C 255.325 200.785,252.991 204.462,252.415 208.800 C 252.167 210.670,251.706 213.730,251.391 215.600 C 251.076 217.470,250.633 220.530,250.406 222.400 C 250.179 224.270,249.816 226.790,249.600 228.000 C 249.384 229.210,249.025 231.910,248.802 234.000 C 248.579 236.090,248.195 238.610,247.949 239.600 C 245.672 248.768,248.156 253.122,253.083 248.597 C 253.918 247.831,254.713 247.203,254.851 247.202 C 255.576 247.196,258.800 242.605,258.800 241.578 C 258.800 240.956,258.980 240.336,259.200 240.200 C 259.420 240.064,259.600 239.350,259.600 238.613 C 259.600 237.876,260.127 234.692,260.771 231.537 C 261.414 228.382,262.060 224.360,262.205 222.600 C 262.350 220.840,262.794 217.690,263.190 215.600 C 263.586 213.510,264.029 209.801,264.173 207.358 L 264.436 202.917 262.853 200.914 C 261.037 198.618,260.201 198.266,258.565 199.111 M321.700 199.082 C 321.205 199.178,320.800 199.423,320.800 199.628 C 320.800 199.834,319.922 200.632,318.848 201.404 C 316.437 203.136,315.348 205.457,314.770 210.095 C 314.544 211.913,314.019 215.290,313.605 217.600 C 313.190 219.910,312.736 222.970,312.596 224.400 C 312.456 225.830,312.005 229.070,311.595 231.600 C 311.184 234.130,310.726 238.193,310.577 240.629 L 310.306 245.058 312.853 247.921 C 315.657 251.072,316.300 251.304,318.554 249.974 C 319.751 249.268,320.025 248.818,320.443 246.874 C 320.712 245.623,321.172 244.114,321.466 243.520 C 321.760 242.926,322.004 241.576,322.009 240.520 C 322.013 239.464,322.371 236.998,322.804 235.040 C 323.237 233.082,323.697 230.022,323.826 228.240 C 323.956 226.458,324.207 224.640,324.385 224.200 C 324.562 223.760,324.924 221.600,325.188 219.400 C 325.453 217.200,325.839 214.140,326.048 212.600 C 326.256 211.060,326.531 208.180,326.658 206.200 L 326.891 202.600 325.211 200.700 C 324.288 199.655,323.322 198.825,323.066 198.854 C 322.810 198.884,322.195 198.987,321.700 199.082 M86.600 247.193 C 81.660 247.726,81.511 247.764,79.674 248.939 C 77.796 250.140,72.810 255.138,72.804 255.825 C 72.802 256.059,73.306 256.735,73.924 257.327 C 75.563 258.898,77.413 259.000,104.129 259.000 L 127.658 259.000 128.729 257.752 C 129.318 257.065,130.115 256.396,130.500 256.264 C 131.560 255.902,131.357 255.007,129.600 252.303 C 128.720 250.949,128.000 249.701,128.000 249.531 C 128.000 248.900,125.679 248.052,122.782 247.625 C 119.007 247.069,90.866 246.733,86.600 247.193 M174.592 247.195 C 171.739 247.614,169.876 248.727,166.028 252.310 L 162.656 255.450 164.162 256.825 C 166.265 258.746,166.201 258.742,193.437 258.663 L 217.474 258.594 218.951 257.297 C 219.763 256.584,220.602 256.000,220.814 256.000 C 222.618 256.000,219.584 251.020,216.093 248.251 C 214.440 246.939,181.953 246.113,174.592 247.195 M266.000 247.163 C 261.966 247.556,260.284 248.506,255.111 253.315 L 252.621 255.630 254.114 256.998 C 254.935 257.750,256.190 258.455,256.903 258.565 C 259.814 259.014,284.208 259.192,295.680 258.847 L 307.960 258.479 309.780 257.171 C 312.073 255.525,312.127 254.548,310.063 252.056 C 309.218 251.035,308.336 249.850,308.103 249.421 C 306.962 247.320,279.505 245.847,266.000 247.163 " stroke="none" fill="#f00708" fill-rule="evenodd"></path><path id="path1" d="M275.020 128.935 C 271.966 129.449,269.531 131.359,268.070 134.388 C 267.592 135.379,266.999 135.895,266.000 136.191 C 261.612 137.490,259.853 140.089,258.780 146.859 C 258.583 148.102,258.242 149.902,258.021 150.859 C 257.800 151.817,257.615 154.116,257.610 155.969 C 257.603 158.261,257.423 159.539,257.045 159.969 C 256.654 160.412,256.346 162.863,256.007 168.200 C 255.635 174.067,255.387 175.908,254.922 176.273 C 254.591 176.534,254.442 176.945,254.592 177.187 C 254.742 177.430,254.468 179.592,253.984 181.993 C 252.934 187.196,253.045 187.799,255.536 190.411 C 258.680 193.707,264.557 193.631,265.946 190.276 C 266.027 190.082,266.872 189.045,267.824 187.973 C 269.632 185.937,270.394 184.025,270.398 181.514 C 270.399 180.697,270.641 179.257,270.935 178.314 C 271.229 177.371,271.506 175.610,271.550 174.400 C 271.594 173.190,271.795 171.660,271.996 171.000 C 272.198 170.340,272.563 166.961,272.808 163.490 C 273.131 158.921,273.464 156.704,274.017 155.455 C 274.513 154.334,274.888 152.203,275.090 149.365 L 275.400 145.000 297.600 144.935 C 309.810 144.899,320.250 144.809,320.800 144.735 C 321.980 144.576,322.029 146.011,320.916 148.163 C 320.449 149.065,320.254 150.849,320.167 154.992 L 320.050 160.600 320.576 156.000 C 320.865 153.470,321.331 150.500,321.611 149.400 C 321.892 148.300,322.281 146.725,322.476 145.900 C 322.671 145.075,323.005 144.400,323.219 144.400 C 323.432 144.400,324.678 143.455,325.986 142.300 C 332.179 136.834,333.521 136.233,335.656 137.967 C 336.830 138.920,336.916 148.071,335.817 155.200 C 335.462 157.510,334.637 163.180,333.986 167.800 C 331.454 185.766,331.258 186.460,327.793 189.789 C 324.578 192.878,320.872 193.790,320.115 191.678 C 319.981 191.305,319.282 190.446,318.561 189.769 C 317.840 189.092,317.123 188.032,316.968 187.413 C 316.589 185.907,317.999 174.492,319.389 167.800 C 319.709 166.260,319.950 164.010,319.925 162.800 C 319.883 160.732,319.865 160.696,319.640 162.200 C 319.508 163.080,319.059 164.303,318.643 164.917 C 318.117 165.693,317.834 166.972,317.716 169.117 C 317.355 175.665,316.711 180.835,315.992 182.960 C 315.777 183.598,315.599 184.678,315.598 185.360 C 315.590 189.833,314.267 191.195,311.644 189.429 C 308.780 187.503,308.526 187.600,307.820 190.900 C 307.691 191.505,307.318 192.000,306.992 192.000 C 306.375 192.000,306.274 191.672,306.376 190.000 C 306.474 188.400,305.464 187.283,304.582 188.015 C 303.550 188.871,273.333 188.645,272.371 187.774 C 271.458 186.947,271.163 187.040,269.788 188.585 C 268.529 190.000,265.848 192.000,265.209 192.000 C 263.799 192.000,262.874 195.131,263.846 196.614 C 264.628 197.808,264.278 197.877,262.909 196.800 C 261.269 195.510,256.400 196.120,256.400 197.615 C 256.400 197.833,255.580 198.409,254.577 198.896 C 252.669 199.823,250.400 203.471,250.400 205.611 C 250.400 206.671,249.758 210.679,248.959 214.601 C 248.646 216.142,248.291 218.752,248.171 220.401 C 248.050 222.051,247.795 223.760,247.604 224.200 C 247.413 224.640,247.172 226.620,247.068 228.600 C 246.964 230.594,246.595 232.863,246.240 233.687 C 245.767 234.786,245.600 236.476,245.600 240.161 C 245.600 242.904,245.408 245.654,245.172 246.273 C 244.011 249.327,245.641 253.600,247.967 253.600 C 249.821 253.600,250.400 253.985,250.400 255.219 C 250.400 255.843,250.580 256.464,250.800 256.600 C 251.020 256.736,251.200 257.349,251.200 257.962 C 251.200 260.093,251.868 260.348,259.800 261.253 C 262.881 261.605,297.207 261.436,307.222 261.021 C 311.790 260.831,313.684 259.410,314.221 255.767 C 314.545 253.567,314.872 253.215,316.597 253.206 C 321.106 253.183,324.074 247.443,325.018 236.920 C 325.152 235.424,325.597 232.400,326.008 230.200 C 326.418 228.000,326.875 224.670,327.023 222.800 C 327.171 220.930,327.632 218.066,328.046 216.436 C 328.461 214.806,328.800 212.457,328.800 211.216 C 328.800 209.975,329.017 208.743,329.282 208.478 C 330.885 206.875,329.039 199.802,326.534 197.951 C 324.001 196.080,323.137 192.800,325.177 192.800 C 327.385 192.800,332.695 185.940,332.763 183.000 C 332.788 181.900,333.072 179.650,333.393 178.000 C 333.714 176.350,334.261 172.695,334.607 169.877 C 334.954 167.060,335.407 164.307,335.615 163.761 C 336.162 162.322,336.990 150.334,336.996 143.782 C 337.001 136.922,336.578 135.834,334.058 136.237 C 332.361 136.509,331.200 135.745,331.200 134.358 C 331.200 133.340,329.462 129.916,328.570 129.175 C 328.083 128.770,326.917 128.612,324.639 128.641 C 313.940 128.777,282.582 128.770,280.400 128.632 C 278.970 128.541,276.549 128.677,275.020 128.935 M315.757 129.953 C 327.541 130.189,328.135 130.237,328.557 130.995 C 328.801 131.433,329.315 132.222,329.700 132.749 C 331.156 134.743,330.183 136.196,323.600 141.853 C 320.421 144.585,322.095 144.421,297.690 144.400 C 285.431 144.389,275.202 144.385,274.959 144.390 C 274.695 144.396,274.424 145.717,274.281 147.700 C 274.151 149.515,273.776 152.080,273.449 153.400 C 273.122 154.720,272.741 157.510,272.603 159.600 C 272.465 161.690,272.016 165.290,271.605 167.600 C 270.563 173.451,269.600 179.801,269.600 180.820 C 269.600 186.536,261.501 194.512,258.350 191.900 C 254.838 188.989,253.952 186.521,254.960 182.458 C 255.268 181.216,255.723 177.860,255.970 175.000 C 256.755 165.935,257.252 161.436,257.605 160.200 C 257.794 159.540,258.245 156.930,258.609 154.400 C 260.453 141.565,260.736 140.644,263.481 138.556 C 264.405 137.852,265.879 137.156,266.756 137.007 C 268.132 136.775,268.388 136.567,268.625 135.486 C 269.170 133.004,272.543 130.236,275.356 129.961 C 278.570 129.647,300.217 129.642,315.757 129.953 M96.321 131.236 C 96.204 131.588,95.570 131.731,94.431 131.664 C 90.776 131.448,89.121 134.696,91.772 136.881 C 93.357 138.188,93.686 139.600,92.406 139.600 C 91.924 139.600,91.201 138.980,90.570 138.027 C 89.141 135.868,87.698 135.415,85.279 136.369 C 80.631 138.201,79.600 139.329,79.600 142.583 C 79.600 143.753,79.405 144.389,79.000 144.545 C 78.669 144.672,78.396 145.274,78.391 145.887 C 78.387 146.499,78.033 148.580,77.606 150.511 C 77.180 152.441,76.553 156.851,76.215 160.311 C 75.876 163.770,75.419 167.601,75.199 168.824 C 74.980 170.047,74.800 172.103,74.800 173.393 C 74.800 174.796,74.581 175.991,74.255 176.369 C 73.603 177.124,72.602 186.190,72.981 187.914 C 73.136 188.620,74.032 189.801,75.208 190.848 C 79.547 194.711,79.840 194.883,80.254 193.804 C 80.379 193.477,81.192 193.018,82.059 192.784 C 85.900 191.750,89.600 186.866,89.600 182.831 C 89.600 181.522,89.803 179.945,90.050 179.326 C 90.298 178.707,90.639 176.632,90.808 174.714 C 90.978 172.797,91.387 170.277,91.719 169.114 C 92.050 167.952,92.524 165.662,92.772 164.028 C 93.019 162.393,93.373 160.863,93.557 160.628 C 93.849 160.255,94.287 154.303,94.630 146.052 C 94.762 142.891,94.997 142.638,97.236 143.248 C 100.553 144.151,139.600 144.227,139.600 143.330 C 139.600 142.377,144.525 137.756,145.912 137.408 C 148.090 136.861,148.931 133.765,147.300 132.292 C 146.524 131.590,132.866 131.145,116.200 131.277 C 102.816 131.383,100.315 131.346,98.349 131.017 C 96.953 130.783,96.454 130.837,96.321 131.236 M184.139 131.618 C 181.099 133.132,179.761 136.004,180.989 138.379 C 181.481 139.330,185.063 142.000,185.848 142.000 C 185.978 142.000,186.920 142.408,187.942 142.908 C 189.781 143.806,189.995 143.817,208.622 143.943 L 227.444 144.070 228.863 142.499 C 229.643 141.635,231.118 140.524,232.140 140.029 C 234.019 139.119,237.600 135.397,237.600 134.353 C 237.600 133.819,236.829 133.182,234.943 132.157 C 233.110 131.162,225.375 130.967,198.800 131.245 C 192.970 131.307,187.660 131.229,187.000 131.073 C 186.145 130.871,185.323 131.028,184.139 131.618 M89.794 139.300 C 90.953 140.455,92.383 142.178,92.973 143.128 L 94.045 144.856 93.423 150.832 C 93.080 154.118,92.800 157.486,92.800 158.315 C 92.800 159.144,92.553 160.177,92.252 160.611 C 91.951 161.045,91.610 162.480,91.494 163.800 C 91.130 167.960,89.980 175.710,89.379 178.058 C 89.060 179.299,88.800 181.162,88.800 182.197 C 88.800 188.173,80.410 194.876,77.162 191.495 C 73.774 187.968,73.384 186.072,74.635 179.200 C 75.330 175.378,75.389 174.966,76.224 168.000 C 77.499 157.355,79.172 146.921,80.474 141.491 C 81.505 137.190,86.499 136.016,89.794 139.300 M240.599 139.204 C 240.463 139.630,239.778 140.384,239.076 140.879 C 238.374 141.374,237.455 142.210,237.033 142.738 C 236.611 143.265,235.709 143.929,235.029 144.214 C 233.823 144.718,233.771 144.850,232.911 149.665 C 231.809 155.827,231.542 157.629,231.354 160.177 C 231.014 164.786,230.481 168.671,230.040 169.766 C 229.781 170.408,229.499 173.468,229.413 176.566 C 229.327 179.665,229.141 182.496,229.001 182.859 C 228.861 183.221,228.787 183.761,228.836 184.059 C 228.886 184.356,228.823 184.870,228.696 185.200 C 228.570 185.530,228.358 186.298,228.224 186.906 L 227.982 188.011 226.691 187.306 C 225.536 186.674,223.678 186.579,209.000 186.400 C 199.980 186.290,192.393 186.066,192.141 185.902 C 191.889 185.738,190.375 185.899,188.778 186.259 C 186.361 186.805,185.455 186.838,183.370 186.454 C 180.905 185.999,180.834 186.012,178.862 187.238 C 176.697 188.584,176.000 188.515,176.000 186.956 C 176.000 186.195,176.331 185.821,177.396 185.376 L 178.792 184.792 177.957 183.957 C 177.417 183.417,177.198 182.817,177.337 182.261 C 178.370 178.128,179.799 169.012,180.216 163.896 C 180.419 161.407,180.621 160.710,181.235 160.382 C 181.890 160.031,182.003 159.499,182.022 156.686 C 182.035 154.879,182.192 151.510,182.371 149.200 C 182.619 146.018,182.576 144.855,182.195 144.400 C 181.919 144.070,181.310 143.037,180.841 142.105 C 178.877 138.199,172.054 138.557,171.986 142.570 C 171.978 143.026,171.714 143.850,171.400 144.400 C 171.083 144.954,170.824 146.469,170.819 147.800 C 170.814 149.120,170.549 151.460,170.229 153.000 C 168.971 159.062,168.373 163.171,168.190 167.000 C 167.952 171.996,167.121 177.355,166.019 181.000 L 165.173 183.800 166.273 186.127 C 167.164 188.012,167.595 188.499,168.540 188.688 C 169.194 188.819,169.789 189.238,169.895 189.642 C 169.999 190.038,170.542 190.663,171.103 191.031 C 172.001 191.619,172.044 191.744,171.460 192.070 C 170.942 192.360,170.852 192.786,171.050 194.021 C 171.295 195.554,171.268 195.600,170.147 195.600 C 168.853 195.600,164.784 198.188,162.137 200.694 C 160.324 202.410,160.339 202.352,159.777 209.999 C 159.640 211.868,159.380 213.489,159.200 213.600 C 159.020 213.712,158.572 216.322,158.206 219.401 C 157.840 222.481,157.283 226.170,156.969 227.600 C 156.655 229.030,156.398 231.022,156.399 232.027 C 156.400 233.031,156.226 234.831,156.014 236.027 C 155.801 237.222,155.557 239.696,155.471 241.524 C 155.348 244.130,155.130 245.099,154.457 246.008 C 153.436 247.389,153.402 247.951,154.219 249.907 C 155.530 253.044,159.043 254.973,160.266 253.227 C 160.585 252.772,161.015 252.400,161.223 252.400 C 161.860 252.400,161.643 253.303,160.786 254.215 C 158.497 256.652,161.247 260.064,166.137 260.854 C 168.284 261.201,200.713 261.458,213.986 261.233 C 221.624 261.104,226.682 256.609,223.600 252.691 C 222.669 251.507,222.569 250.290,223.349 249.642 C 223.780 249.285,224.038 249.399,224.542 250.167 C 226.323 252.885,230.957 248.320,230.858 243.944 C 230.833 242.839,231.056 241.455,231.354 240.868 C 231.651 240.280,232.021 238.450,232.174 236.800 C 232.328 235.150,232.625 233.080,232.834 232.200 C 233.042 231.320,233.382 229.250,233.589 227.600 C 233.796 225.950,234.159 223.430,234.395 222.000 C 234.793 219.596,235.778 213.040,236.274 209.496 C 236.680 206.601,235.638 204.800,233.559 204.800 C 232.236 204.800,231.631 203.876,232.279 202.846 C 232.965 201.757,234.096 201.825,235.043 203.013 C 236.107 204.347,237.020 204.128,237.389 202.450 C 238.116 199.138,232.858 196.518,230.265 198.900 C 225.667 203.125,223.896 206.205,225.500 207.190 C 226.149 207.588,226.135 207.666,225.300 208.258 C 224.588 208.764,224.400 209.285,224.400 210.749 C 224.400 211.768,223.969 214.761,223.443 217.401 C 222.917 220.040,222.189 224.450,221.825 227.200 C 221.461 229.950,220.992 233.405,220.782 234.877 C 220.255 238.573,220.302 239.821,220.992 240.393 C 221.421 240.750,221.476 241.084,221.192 241.616 C 220.611 242.701,220.710 243.373,221.600 244.400 C 222.519 245.459,222.599 246.041,221.920 246.720 C 221.255 247.385,220.198 247.320,219.581 246.577 C 218.751 245.577,216.458 244.800,214.338 244.800 C 213.258 244.800,211.707 244.521,210.892 244.181 C 210.048 243.828,208.976 243.670,208.405 243.813 C 207.853 243.952,199.481 244.109,189.800 244.163 C 180.120 244.216,171.885 244.401,171.500 244.573 C 170.458 245.038,170.583 243.472,172.016 238.139 C 172.685 235.650,173.387 231.831,173.576 229.655 C 173.765 227.478,174.095 225.360,174.309 224.948 C 174.524 224.537,174.823 222.490,174.976 220.400 C 175.128 218.310,175.511 215.712,175.826 214.627 C 176.174 213.433,176.400 210.878,176.400 208.151 C 176.400 205.458,176.568 203.544,176.817 203.390 C 177.046 203.248,186.721 203.139,198.317 203.148 C 220.127 203.165,222.996 202.989,224.626 201.536 C 225.080 201.131,225.601 200.800,225.785 200.800 C 228.684 200.800,232.198 192.795,229.598 192.115 C 228.999 191.959,228.800 191.569,228.800 190.553 C 228.800 188.784,229.384 188.843,231.246 190.800 C 233.823 193.509,235.714 192.841,234.871 189.519 C 234.288 187.222,236.446 184.674,237.856 185.994 C 239.151 187.207,240.769 184.190,240.204 181.616 C 239.877 180.127,240.939 174.169,242.240 170.200 C 243.058 167.703,243.243 166.498,243.083 164.715 C 242.971 163.458,243.049 161.672,243.256 160.747 C 243.464 159.821,243.802 157.700,244.007 156.032 C 244.212 154.364,244.655 150.750,244.991 148.000 C 245.686 142.326,245.563 140.868,244.294 139.718 C 242.956 138.505,240.911 138.221,240.599 139.204 M150.968 139.873 C 150.510 139.964,149.166 141.019,147.981 142.219 C 146.797 143.419,145.510 144.400,145.121 144.400 C 144.678 144.400,144.323 144.809,144.167 145.500 C 143.723 147.474,142.717 150.969,142.183 152.400 C 141.513 154.192,141.254 155.927,140.809 161.600 C 139.932 172.775,139.537 176.120,139.038 176.619 C 137.182 178.475,138.129 188.284,140.342 190.117 C 140.952 190.623,143.999 190.799,144.000 190.329 C 144.000 189.985,144.700 189.306,146.569 187.836 C 148.853 186.040,149.722 183.976,149.783 180.196 C 149.811 178.433,150.006 176.723,150.215 176.396 C 150.777 175.514,151.599 172.452,151.823 170.400 C 152.579 163.494,152.884 161.302,153.185 160.600 C 153.374 160.160,153.734 157.007,153.985 153.593 C 154.237 150.179,154.633 146.669,154.865 145.793 C 156.271 140.497,155.298 139.018,150.968 139.873 M317.236 162.500 C 317.417 163.435,317.573 164.346,317.583 164.524 C 317.592 164.702,317.780 164.736,318.000 164.600 C 318.787 164.114,318.485 160.800,317.654 160.800 C 316.991 160.800,316.944 160.990,317.236 162.500 M237.654 177.306 C 237.434 177.526,236.932 177.583,236.538 177.432 C 235.959 177.209,235.928 177.092,236.375 176.815 C 237.116 176.358,238.190 176.770,237.654 177.306 M94.233 187.963 C 93.442 188.837,92.033 189.435,89.961 189.776 C 88.949 189.943,88.388 190.308,88.070 191.007 C 87.821 191.553,87.285 192.000,86.878 192.000 C 85.832 192.000,84.488 193.584,84.332 195.000 L 84.200 196.200 80.340 196.400 L 76.479 196.600 74.719 198.400 C 73.751 199.390,72.495 200.507,71.927 200.883 C 71.260 201.324,70.796 202.097,70.613 203.069 C 70.458 203.896,70.077 205.065,69.766 205.666 C 69.455 206.268,69.200 207.827,69.200 209.130 C 69.200 210.433,68.942 212.232,68.626 213.127 C 68.310 214.022,67.945 216.520,67.814 218.677 C 67.542 223.157,66.989 227.438,66.195 231.200 C 65.893 232.630,65.533 235.576,65.395 237.746 C 65.258 239.917,64.963 242.167,64.741 242.746 C 62.827 247.738,65.250 254.000,69.096 254.000 C 69.655 254.000,69.918 254.516,70.267 256.300 C 71.155 260.845,70.817 260.590,76.759 261.196 C 80.803 261.608,87.337 261.674,105.576 261.484 C 132.007 261.210,131.047 261.322,132.373 258.360 C 132.764 257.487,133.406 256.537,133.800 256.249 C 135.011 255.364,130.924 248.000,129.223 248.000 C 128.990 248.000,128.800 247.662,128.800 247.249 C 128.800 245.765,128.134 245.590,119.400 244.773 C 111.182 244.004,86.713 244.510,81.311 245.560 C 79.183 245.974,79.069 245.842,80.023 244.062 C 80.498 243.176,80.782 241.910,80.753 240.806 L 80.706 239.000 80.381 240.939 C 79.869 243.990,77.376 247.088,71.987 251.372 C 68.105 254.457,64.886 252.316,65.308 246.928 C 65.860 239.891,66.484 234.303,66.976 232.000 C 67.282 230.570,67.733 227.600,67.978 225.400 C 68.594 219.886,69.184 215.711,69.626 213.723 C 69.832 212.800,70.000 211.515,70.000 210.867 C 70.000 209.137,71.827 202.397,72.458 201.799 C 77.969 196.573,80.470 195.996,83.453 199.265 C 86.166 202.238,86.221 204.084,83.997 217.600 C 83.580 220.130,82.951 224.341,82.598 226.958 C 82.245 229.574,81.699 232.454,81.384 233.358 C 81.069 234.261,80.830 235.810,80.852 236.800 C 80.875 237.790,80.981 238.253,81.090 237.828 C 81.198 237.404,81.513 236.829,81.791 236.552 C 82.412 235.931,83.200 230.846,83.200 227.464 C 83.200 226.087,83.407 224.753,83.660 224.500 C 84.207 223.953,84.584 221.922,85.385 215.222 C 85.712 212.484,86.172 208.884,86.407 207.222 C 86.762 204.716,86.726 203.824,86.196 202.000 C 85.133 198.341,85.079 198.000,85.566 198.000 C 85.818 198.000,86.144 198.311,86.290 198.691 C 86.962 200.442,89.202 202.095,90.325 201.668 C 92.794 200.731,95.603 200.304,96.174 200.779 C 96.582 201.117,101.165 201.205,113.266 201.107 C 131.752 200.957,133.752 200.682,135.287 198.084 C 135.643 197.481,136.399 196.486,136.967 195.873 C 138.587 194.125,137.564 191.200,135.333 191.200 C 135.144 191.200,134.812 190.805,134.595 190.322 C 133.982 188.960,133.195 188.898,114.578 188.744 C 98.441 188.611,97.048 188.546,96.645 187.900 C 96.073 186.985,95.095 187.011,94.233 187.963 M225.713 188.106 C 226.305 188.494,227.139 189.496,227.566 190.333 C 227.992 191.169,228.625 192.089,228.971 192.376 C 231.577 194.539,225.779 201.109,220.510 201.964 C 217.886 202.389,177.678 202.407,176.483 201.983 C 176.088 201.843,175.923 202.794,175.784 206.000 C 175.684 208.310,175.330 211.730,174.996 213.600 C 174.662 215.470,174.116 218.890,173.782 221.200 C 173.447 223.510,172.926 227.110,172.624 229.200 C 171.670 235.797,169.970 243.351,169.136 244.702 C 168.278 246.092,162.646 251.200,161.971 251.200 C 161.749 251.200,161.049 251.583,160.416 252.051 C 158.965 253.124,157.564 252.835,156.419 251.227 C 155.158 249.455,155.221 246.998,156.800 236.400 C 157.210 233.650,157.667 230.050,157.815 228.400 C 157.964 226.750,158.317 224.410,158.600 223.200 C 159.174 220.751,159.752 216.494,160.447 209.600 C 161.193 202.194,165.903 196.235,170.438 196.960 L 172.000 197.209 172.000 195.778 C 172.000 193.836,172.611 192.838,174.208 192.171 C 174.947 191.862,175.788 191.132,176.076 190.549 C 176.372 189.949,177.552 188.982,178.791 188.325 L 180.981 187.162 202.809 187.281 C 222.872 187.390,224.723 187.457,225.713 188.106 M272.200 192.000 C 272.200 193.096,271.309 193.550,270.957 192.633 C 270.626 191.771,271.087 190.696,271.700 190.900 C 271.975 190.992,272.200 191.487,272.200 192.000 M316.400 191.433 C 316.400 191.782,316.186 191.995,315.925 191.908 C 315.183 191.661,315.060 190.800,315.767 190.800 C 316.115 190.800,316.400 191.085,316.400 191.433 M321.700 193.195 C 323.078 193.205,322.565 195.334,320.853 196.709 C 319.287 197.968,317.600 198.112,317.600 196.987 C 317.600 195.342,319.230 192.715,320.105 192.949 C 320.597 193.081,321.315 193.192,321.700 193.195 M269.730 194.961 C 270.017 195.710,269.043 196.997,268.461 196.638 C 267.846 196.257,267.872 194.918,268.500 194.665 C 269.326 194.331,269.505 194.374,269.730 194.961 M261.520 197.360 C 263.364 198.317,265.992 201.906,266.056 203.554 C 266.152 206.043,265.942 208.185,265.564 208.580 C 265.364 208.789,265.197 209.779,265.194 210.780 C 265.191 211.781,264.735 215.570,264.182 219.200 C 263.628 222.830,262.924 227.690,262.616 230.000 C 262.309 232.310,261.657 236.404,261.168 239.098 L 260.278 243.995 257.955 246.298 C 251.494 252.702,249.080 253.916,246.982 251.818 C 245.791 250.627,245.600 243.281,246.623 238.000 C 246.943 236.350,247.460 232.840,247.772 230.200 C 248.083 227.560,248.524 224.410,248.751 223.200 C 248.978 221.990,249.459 218.570,249.820 215.600 C 251.134 204.783,251.616 203.258,254.679 200.207 C 258.016 196.883,259.450 196.286,261.520 197.360 M325.824 198.858 C 329.234 202.083,329.287 202.749,327.143 215.445 C 326.916 216.790,326.575 219.310,326.386 221.045 C 326.197 222.780,325.845 225.370,325.604 226.800 C 325.362 228.230,324.822 231.920,324.403 235.000 C 322.904 246.009,321.654 249.750,318.877 251.542 C 316.524 253.061,315.204 252.867,313.015 250.678 C 311.982 249.645,311.016 248.800,310.868 248.799 C 310.721 248.799,310.087 247.987,309.461 246.995 L 308.322 245.192 308.968 241.096 C 309.324 238.843,309.882 234.228,310.208 230.841 C 310.534 227.453,310.961 224.483,311.156 224.241 C 311.351 223.998,311.634 222.270,311.784 220.400 C 311.933 218.530,312.299 215.470,312.596 213.600 C 312.893 211.730,313.256 209.120,313.402 207.800 C 313.871 203.568,315.996 200.059,318.613 199.196 C 319.376 198.944,320.000 198.563,320.000 198.350 C 320.000 197.939,322.235 196.842,323.124 196.816 C 323.412 196.807,324.627 197.726,325.824 198.858 M314.313 200.300 C 314.210 201.345,313.759 203.010,313.312 204.000 C 312.865 204.990,312.376 207.150,312.226 208.800 C 311.715 214.414,310.421 224.042,310.114 224.522 C 309.814 224.990,309.533 227.745,308.965 235.800 C 308.806 238.051,308.446 240.145,308.141 240.589 C 307.844 241.023,307.600 242.047,307.600 242.865 C 307.600 244.632,307.024 245.126,306.022 244.220 C 305.347 243.609,305.248 243.609,304.637 244.220 C 304.046 244.811,303.134 244.843,295.690 244.539 C 281.554 243.961,264.187 244.293,261.838 245.185 C 260.762 245.595,260.370 245.012,261.161 244.180 C 261.360 243.971,261.621 242.990,261.742 242.000 C 261.863 241.010,262.132 239.210,262.339 238.000 C 262.787 235.389,263.492 229.851,263.755 226.875 C 263.859 225.707,264.116 224.537,264.326 224.275 C 264.716 223.792,265.587 216.884,265.898 211.800 C 266.015 209.904,266.259 208.893,266.655 208.669 C 267.108 208.412,267.223 207.536,267.167 204.755 C 267.082 200.545,267.039 200.618,269.213 201.204 C 270.145 201.454,271.378 201.540,271.954 201.394 C 273.733 200.941,308.163 201.130,309.397 201.599 C 310.901 202.171,311.866 201.787,312.192 200.488 C 312.894 197.694,314.587 197.544,314.313 200.300 M139.677 200.601 C 138.601 201.099,137.602 201.753,137.456 202.054 C 137.180 202.623,136.310 203.958,135.080 205.701 C 134.682 206.265,134.215 207.946,134.035 209.461 C 133.072 217.585,132.260 222.744,131.761 223.914 C 131.452 224.636,131.195 226.346,131.188 227.714 C 131.173 230.848,130.151 243.198,129.841 244.000 C 129.556 244.736,129.934 245.340,131.047 245.926 C 131.603 246.218,131.981 246.920,132.149 247.973 C 132.457 249.895,133.476 250.576,135.546 250.242 C 136.345 250.113,137.540 249.961,138.200 249.904 C 141.658 249.605,143.311 242.915,140.100 242.218 C 138.156 241.797,138.362 240.653,140.468 240.177 C 142.363 239.749,142.333 239.823,142.634 234.800 C 142.930 229.843,143.597 226.894,144.475 226.665 C 145.544 226.385,145.863 225.181,145.030 224.572 C 144.204 223.968,144.302 221.206,145.349 215.600 C 145.698 213.730,145.988 211.367,145.992 210.349 C 145.997 209.189,146.227 208.310,146.608 207.994 C 147.361 207.368,147.082 205.378,145.881 202.800 C 144.337 199.489,143.057 199.035,139.677 200.601 M136.643 243.900 C 137.225 244.667,137.396 246.800,136.875 246.800 C 136.169 246.800,134.304 244.428,134.535 243.824 C 134.855 242.991,135.984 243.032,136.643 243.900 M124.598 246.152 C 127.749 246.593,127.807 246.622,128.502 248.100 C 128.889 248.925,129.376 249.600,129.584 249.600 C 130.085 249.600,132.336 252.896,132.858 254.394 C 133.344 255.788,131.340 258.656,129.059 259.831 C 126.520 261.139,76.929 261.099,73.507 259.786 C 72.589 259.433,70.733 256.042,70.999 255.203 C 71.271 254.346,77.317 248.540,79.410 247.125 C 82.049 245.342,113.921 244.655,124.598 246.152 M215.098 245.888 C 217.568 246.321,219.598 248.065,221.811 251.652 C 223.530 254.439,223.542 255.221,221.900 257.265 C 219.450 260.314,220.913 260.148,194.861 260.328 C 164.197 260.538,163.749 260.493,161.556 256.948 L 160.782 255.695 162.332 253.748 C 164.477 251.053,169.639 246.738,171.694 245.922 C 173.610 245.160,210.791 245.131,215.098 245.888 M304.200 245.759 C 307.498 245.921,309.668 247.598,312.333 252.047 C 313.905 254.672,312.914 258.085,310.206 259.370 C 307.160 260.816,260.634 261.281,255.417 259.918 C 251.371 258.861,250.263 255.672,253.048 253.104 C 254.065 252.167,255.855 250.480,257.026 249.356 C 260.189 246.321,261.371 245.879,267.200 245.553 C 271.474 245.313,298.164 245.462,304.200 245.759 " stroke="none" fill="#270404" fill-rule="evenodd"></path><path id="path2" d="M275.356 129.961 C 272.543 130.236,269.170 133.004,268.625 135.486 C 268.388 136.567,268.132 136.775,266.756 137.007 C 263.133 137.619,260.779 140.555,260.024 145.400 C 259.784 146.940,259.404 149.114,259.180 150.231 C 258.785 152.207,258.143 156.418,256.993 164.600 C 256.683 166.800,256.440 169.410,256.452 170.400 C 256.473 172.085,256.936 169.668,258.367 160.400 C 258.588 158.970,259.138 155.460,259.590 152.600 C 260.042 149.740,260.415 146.950,260.419 146.400 C 260.423 145.850,260.743 144.500,261.131 143.400 C 263.270 137.328,266.632 136.200,270.383 140.296 C 273.596 143.804,273.846 144.582,273.229 149.159 C 272.944 151.271,272.652 154.530,272.581 156.400 L 272.451 159.800 272.798 156.799 C 272.989 155.148,273.341 153.282,273.580 152.653 C 273.819 152.023,274.129 149.909,274.268 147.954 C 274.421 145.798,274.693 144.396,274.960 144.390 C 275.202 144.385,285.431 144.389,297.690 144.400 C 322.095 144.421,320.421 144.585,323.600 141.853 C 330.183 136.196,331.156 134.743,329.700 132.749 C 329.315 132.222,328.801 131.433,328.557 130.995 C 327.965 129.932,284.329 129.084,275.356 129.961 M326.574 130.697 C 327.954 130.961,329.766 133.683,329.437 134.997 C 329.187 135.992,325.795 139.280,322.028 142.179 L 319.626 144.027 298.113 143.913 L 276.600 143.800 274.714 142.827 C 273.410 142.155,272.698 141.482,272.408 140.651 C 272.178 139.990,271.457 138.988,270.807 138.425 C 268.854 136.731,268.837 135.507,270.741 133.565 C 271.633 132.655,272.426 131.722,272.503 131.492 C 272.807 130.578,322.152 129.852,326.574 130.697 M82.718 138.601 C 81.309 139.634,80.745 140.361,80.474 141.491 C 79.172 146.921,77.499 157.355,76.224 168.000 C 75.389 174.966,75.330 175.378,74.635 179.200 C 73.384 186.072,73.774 187.968,77.162 191.495 C 80.410 194.876,88.800 188.173,88.800 182.197 C 88.800 181.162,89.060 179.299,89.379 178.058 C 89.980 175.710,91.130 167.960,91.494 163.800 C 91.610 162.480,91.951 161.045,92.252 160.611 C 92.553 160.177,92.800 159.144,92.800 158.315 C 92.800 157.486,93.080 154.118,93.423 150.832 L 94.045 144.856 92.973 143.128 C 89.448 137.448,86.227 136.026,82.718 138.601 M330.210 138.700 C 329.196 139.525,327.295 141.145,325.986 142.300 C 324.678 143.455,323.432 144.400,323.219 144.400 C 322.424 144.400,320.894 152.156,320.378 158.800 C 320.130 161.990,319.659 166.040,319.330 167.800 C 316.513 182.896,316.345 187.688,318.561 189.769 C 319.282 190.446,319.981 191.305,320.115 191.678 C 320.872 193.790,324.578 192.878,327.793 189.789 C 331.264 186.454,331.450 185.794,334.016 167.600 C 334.683 162.870,335.491 157.290,335.812 155.200 C 336.132 153.110,336.376 150.590,336.354 149.600 C 336.295 146.924,334.269 159.464,332.575 173.000 C 331.163 184.285,330.388 186.507,326.746 189.714 C 323.305 192.743,321.370 193.062,320.196 190.793 C 319.869 190.161,319.132 189.138,318.557 188.522 C 317.583 187.475,317.527 187.212,317.728 184.600 C 318.095 179.813,318.807 174.312,319.411 171.600 C 319.730 170.170,320.173 166.660,320.396 163.800 C 320.619 160.940,321.089 156.980,321.440 155.000 C 323.037 146.003,323.187 145.409,324.031 144.800 C 324.488 144.470,326.063 143.137,327.531 141.839 C 332.164 137.740,333.641 137.205,335.418 138.982 C 336.304 139.868,336.400 139.890,336.400 139.204 C 336.400 136.877,332.812 136.584,330.210 138.700 M87.120 138.169 C 88.468 138.878,91.654 142.182,92.608 143.859 C 93.351 145.165,92.603 157.250,91.609 160.000 C 91.290 160.884,90.732 164.507,89.577 173.200 C 88.023 184.906,87.497 186.325,83.483 189.666 C 79.730 192.789,79.401 192.864,77.748 190.979 C 74.497 187.273,74.267 186.081,75.406 178.848 C 75.740 176.731,76.171 173.560,76.365 171.800 C 77.046 165.607,78.803 153.371,79.380 150.800 C 79.701 149.370,80.177 146.692,80.439 144.849 C 80.962 141.154,81.980 139.501,84.496 138.261 C 86.084 137.478,85.825 137.487,87.120 138.169 M336.540 143.600 C 336.540 145.470,336.609 146.235,336.693 145.300 C 336.777 144.365,336.777 142.835,336.693 141.900 C 336.609 140.965,336.540 141.730,336.540 143.600 M272.067 161.268 C 272.030 162.075,271.732 163.785,271.403 165.068 C 271.075 166.350,270.529 169.290,270.189 171.600 C 269.849 173.910,269.313 177.510,268.998 179.600 C 268.683 181.690,268.420 183.602,268.413 183.850 C 268.363 185.597,261.782 192.000,260.034 192.000 C 257.676 192.000,254.883 186.767,255.559 183.615 C 255.793 182.527,256.070 179.604,256.175 177.119 L 256.366 172.600 255.808 177.200 C 255.501 179.730,255.058 182.429,254.825 183.197 C 253.888 186.280,255.060 189.173,258.350 191.900 C 261.513 194.522,269.600 186.534,269.600 180.788 C 269.600 179.741,270.477 174.056,271.635 167.600 C 272.089 165.069,272.387 162.279,272.297 161.400 L 272.134 159.800 272.067 161.268 M178.791 188.325 C 177.552 188.982,176.372 189.949,176.076 190.549 C 175.788 191.132,174.947 191.862,174.208 192.171 C 172.611 192.838,172.000 193.836,172.000 195.778 L 172.000 197.209 170.438 196.960 C 165.903 196.235,161.193 202.194,160.447 209.600 C 159.752 216.494,159.174 220.751,158.600 223.200 C 158.317 224.410,157.964 226.750,157.815 228.400 C 157.667 230.050,157.210 233.650,156.800 236.400 C 155.221 246.998,155.158 249.455,156.419 251.227 C 157.564 252.835,158.965 253.124,160.416 252.051 C 161.049 251.583,161.749 251.200,161.971 251.200 C 162.646 251.200,168.278 246.092,169.136 244.702 C 169.970 243.351,171.670 235.797,172.624 229.200 C 172.926 227.110,173.447 223.510,173.782 221.200 C 174.116 218.890,174.662 215.470,174.996 213.600 C 175.330 211.730,175.684 208.310,175.784 206.000 C 175.923 202.794,176.088 201.843,176.483 201.983 C 177.678 202.407,217.886 202.389,220.510 201.964 C 225.779 201.109,231.577 194.539,228.971 192.376 C 228.625 192.089,227.992 191.169,227.566 190.333 C 225.998 187.260,227.249 187.414,202.809 187.281 L 180.981 187.162 178.791 188.325 M225.101 188.638 C 225.597 188.958,226.497 189.963,227.101 190.870 C 227.706 191.777,228.362 192.735,228.559 192.998 C 229.246 193.914,228.331 195.768,226.073 198.037 C 222.399 201.727,223.380 201.600,198.587 201.600 L 177.202 201.600 175.539 200.100 C 172.088 196.989,171.902 194.175,175.025 192.332 C 175.781 191.886,176.400 191.286,176.400 190.998 C 176.400 189.509,180.050 188.207,184.800 188.000 C 194.966 187.558,224.145 188.020,225.101 188.638 M257.800 197.548 C 252.498 200.841,251.278 203.602,249.820 215.600 C 249.459 218.570,248.978 221.990,248.751 223.200 C 248.524 224.410,248.083 227.560,247.772 230.200 C 247.460 232.840,246.943 236.350,246.623 238.000 C 245.600 243.281,245.791 250.627,246.982 251.818 C 249.080 253.916,251.494 252.702,257.955 246.298 L 260.278 243.995 261.168 239.098 C 261.657 236.404,262.309 232.310,262.616 230.000 C 262.924 227.690,263.628 222.830,264.182 219.200 C 264.735 215.570,265.191 211.781,265.194 210.780 C 265.197 209.779,265.364 208.789,265.564 208.580 C 265.942 208.185,266.152 206.043,266.056 203.554 C 265.904 199.621,260.635 195.788,257.800 197.548 M321.300 197.396 C 320.585 197.707,320.000 198.136,320.000 198.350 C 320.000 198.563,319.376 198.944,318.613 199.196 C 315.996 200.059,313.871 203.568,313.402 207.800 C 313.256 209.120,312.893 211.730,312.596 213.600 C 312.299 215.470,311.933 218.530,311.784 220.400 C 311.634 222.270,311.351 223.998,311.156 224.241 C 310.961 224.483,310.534 227.453,310.208 230.841 C 309.882 234.228,309.324 238.843,308.968 241.096 L 308.322 245.192 309.461 246.995 C 310.087 247.987,310.721 248.799,310.868 248.799 C 311.016 248.800,311.982 249.645,313.015 250.678 C 315.204 252.867,316.524 253.061,318.877 251.542 C 321.654 249.750,322.904 246.009,324.403 235.000 C 324.822 231.920,325.362 228.230,325.604 226.800 C 325.845 225.370,326.197 222.780,326.386 221.045 C 326.575 219.310,326.916 216.790,327.143 215.445 C 329.287 202.749,329.234 202.083,325.824 198.858 C 323.463 196.625,323.240 196.553,321.300 197.396 M75.362 199.242 C 74.063 200.366,72.756 201.516,72.458 201.799 C 71.827 202.397,70.000 209.137,70.000 210.867 C 70.000 211.515,69.832 212.800,69.626 213.723 C 69.184 215.711,68.594 219.886,67.978 225.400 C 67.733 227.600,67.282 230.570,66.976 232.000 C 66.484 234.303,65.860 239.891,65.308 246.928 C 64.886 252.321,68.100 254.453,72.000 251.368 C 78.423 246.287,80.235 243.564,80.628 238.400 C 80.770 236.530,81.128 234.255,81.423 233.345 C 81.718 232.435,82.248 229.555,82.600 226.945 C 82.952 224.335,83.580 220.130,83.997 217.600 C 86.221 204.084,86.166 202.238,83.453 199.265 C 81.038 196.619,78.405 196.611,75.362 199.242 M81.158 198.574 C 84.465 200.661,85.384 202.950,84.774 207.570 C 83.949 213.815,81.963 226.714,81.353 229.796 C 81.005 231.554,80.576 234.528,80.399 236.406 C 79.781 243.000,79.137 244.236,73.983 248.729 C 66.452 255.294,64.748 252.382,67.001 236.800 C 67.304 234.710,67.752 231.470,67.999 229.600 C 69.603 217.410,71.154 207.675,72.013 204.393 C 72.404 202.898,74.735 200.387,77.356 198.638 C 79.256 197.370,79.252 197.370,81.158 198.574 M172.541 199.188 C 175.869 202.256,175.791 205.421,171.792 229.600 C 171.192 233.230,170.564 237.100,170.397 238.200 C 169.606 243.412,167.100 246.980,161.947 250.233 C 161.133 250.747,160.351 251.355,160.210 251.584 C 159.412 252.876,156.613 251.119,156.266 249.107 C 156.029 247.734,156.516 241.736,157.169 238.000 C 157.380 236.790,157.854 233.280,158.222 230.200 C 158.590 227.120,159.046 224.407,159.236 224.171 C 159.425 223.935,159.857 220.579,160.196 216.713 C 161.194 205.313,162.128 202.681,166.352 199.365 C 169.219 197.115,170.259 197.085,172.541 199.188 M263.017 199.729 C 264.152 200.901,265.173 202.347,265.287 202.944 C 265.570 204.422,263.911 218.526,262.811 224.000 C 262.612 224.990,262.335 226.880,262.196 228.200 C 261.911 230.897,260.175 240.654,259.599 242.800 C 258.974 245.126,251.133 252.000,249.105 252.000 C 246.237 252.000,245.753 247.964,247.400 237.761 C 247.950 234.353,248.400 231.037,248.400 230.391 C 248.400 229.745,248.658 227.818,248.973 226.108 C 249.288 224.399,249.747 221.380,249.992 219.400 C 250.467 215.564,250.922 212.322,251.619 207.800 C 252.112 204.606,253.249 202.416,255.463 200.400 C 259.337 196.872,260.177 196.798,263.017 199.729 M324.308 198.401 C 326.552 199.769,328.095 202.630,327.867 205.000 C 327.424 209.612,325.540 223.493,325.207 224.600 C 325.009 225.260,324.731 227.060,324.591 228.600 C 323.149 244.378,320.001 252.767,315.830 251.946 C 314.082 251.601,309.397 245.635,309.478 243.857 C 309.565 241.942,310.631 232.218,311.172 228.400 C 311.375 226.970,311.927 223.100,312.399 219.800 C 312.871 216.500,313.421 212.540,313.621 211.000 C 314.291 205.842,314.641 204.575,315.906 202.737 C 316.598 201.731,317.796 200.608,318.569 200.241 C 319.342 199.875,320.117 199.321,320.290 199.010 C 320.553 198.541,322.049 197.716,322.800 197.627 C 322.910 197.614,323.589 197.962,324.308 198.401 M87.200 245.667 C 81.460 246.022,80.882 246.131,79.410 247.125 C 77.317 248.540,71.271 254.346,70.999 255.203 C 70.733 256.042,72.589 259.433,73.507 259.786 C 76.929 261.099,126.520 261.139,129.059 259.831 C 131.340 258.656,133.344 255.788,132.858 254.394 C 132.336 252.896,130.085 249.600,129.584 249.600 C 129.376 249.600,128.889 248.925,128.502 248.100 C 127.807 246.622,127.749 246.593,124.598 246.152 C 120.169 245.531,94.734 245.201,87.200 245.667 M171.694 245.922 C 169.639 246.738,164.477 251.053,162.332 253.748 L 160.782 255.695 161.556 256.948 C 163.749 260.493,164.197 260.538,194.861 260.328 C 220.913 260.148,219.450 260.314,221.900 257.265 C 223.542 255.221,223.530 254.439,221.811 251.652 C 219.598 248.065,217.568 246.321,215.098 245.888 C 210.791 245.131,173.610 245.160,171.694 245.922 M267.200 245.553 C 261.371 245.879,260.189 246.321,257.026 249.356 C 255.855 250.480,254.065 252.167,253.048 253.104 C 250.263 255.672,251.371 258.861,255.417 259.918 C 260.634 261.281,307.160 260.816,310.206 259.370 C 312.914 258.085,313.905 254.672,312.333 252.047 C 309.668 247.598,307.498 245.921,304.200 245.759 C 298.164 245.462,271.474 245.313,267.200 245.553 M210.600 246.240 L 216.200 246.502 217.724 248.093 C 222.850 253.444,223.272 254.787,220.642 257.380 C 218.254 259.733,218.570 259.708,191.800 259.710 C 165.525 259.711,165.208 259.689,163.339 257.654 C 161.253 255.383,161.694 254.547,167.546 249.676 C 171.409 246.462,171.745 246.351,178.354 246.112 C 181.569 245.996,184.280 245.827,184.379 245.738 C 184.603 245.535,203.096 245.889,210.600 246.240 M117.400 246.382 C 126.968 246.784,127.728 246.964,128.392 248.975 C 128.650 249.759,129.019 250.400,129.212 250.400 C 129.664 250.400,131.803 253.520,132.183 254.734 C 132.516 255.796,131.638 256.946,129.040 258.854 L 127.480 260.000 104.240 259.975 C 75.841 259.944,74.711 259.865,72.912 257.785 C 72.191 256.950,71.600 256.052,71.600 255.791 C 71.600 255.259,77.891 248.800,78.409 248.800 C 78.590 248.800,79.291 248.335,79.967 247.767 C 81.921 246.123,97.524 245.545,117.400 246.382 M300.043 246.352 C 306.903 246.701,307.339 246.889,310.385 250.813 C 313.943 255.397,312.457 258.739,306.539 259.463 C 302.983 259.898,259.200 259.902,256.650 259.468 C 254.583 259.116,252.006 256.933,252.002 255.530 C 252.000 254.811,257.708 249.534,260.449 247.720 C 262.853 246.129,282.373 245.454,300.043 246.352 " stroke="none" fill="#5d0707" fill-rule="evenodd"></path><path id="path3" d="M0.000 200.000 L 0.000 400.000 200.000 400.000 L 400.000 400.000 400.000 200.000 L 400.000 0.000 200.000 0.000 L 0.000 0.000 0.000 200.000 M302.200 128.740 C 312.760 128.708,322.857 128.664,324.639 128.641 C 326.917 128.612,328.083 128.770,328.570 129.175 C 329.462 129.916,331.200 133.340,331.200 134.358 C 331.200 135.745,332.361 136.509,334.058 136.237 C 336.578 135.834,337.001 136.922,336.996 143.782 C 336.990 150.334,336.162 162.322,335.615 163.761 C 335.407 164.307,334.954 167.060,334.607 169.877 C 334.261 172.695,333.714 176.350,333.393 178.000 C 333.072 179.650,332.788 181.900,332.763 183.000 C 332.695 185.940,327.385 192.800,325.177 192.800 C 323.137 192.800,324.001 196.080,326.534 197.951 C 329.039 199.802,330.885 206.875,329.282 208.478 C 329.017 208.743,328.800 209.975,328.800 211.216 C 328.800 212.457,328.461 214.806,328.046 216.436 C 327.632 218.066,327.171 220.930,327.023 222.800 C 326.875 224.670,326.418 228.000,326.008 230.200 C 325.597 232.400,325.152 235.424,325.018 236.920 C 324.074 247.443,321.106 253.183,316.597 253.206 C 314.872 253.215,314.545 253.567,314.221 255.767 C 313.684 259.410,311.790 260.831,307.222 261.021 C 297.207 261.436,262.881 261.605,259.800 261.253 C 251.868 260.348,251.200 260.093,251.200 257.962 C 251.200 257.349,251.020 256.736,250.800 256.600 C 250.580 256.464,250.400 255.843,250.400 255.219 C 250.400 253.985,249.821 253.600,247.967 253.600 C 245.641 253.600,244.011 249.327,245.172 246.273 C 245.408 245.654,245.600 242.904,245.600 240.161 C 245.600 236.476,245.767 234.786,246.240 233.687 C 246.595 232.863,246.964 230.594,247.068 228.600 C 247.172 226.620,247.413 224.640,247.604 224.200 C 247.795 223.760,248.050 222.051,248.171 220.401 C 248.291 218.752,248.646 216.142,248.959 214.601 C 249.758 210.679,250.400 206.671,250.400 205.611 C 250.400 203.471,252.669 199.823,254.577 198.896 C 255.580 198.409,256.400 197.833,256.400 197.615 C 256.400 196.120,261.269 195.510,262.909 196.800 C 264.278 197.877,264.628 197.808,263.846 196.614 C 262.874 195.131,263.799 192.000,265.209 192.000 C 265.848 192.000,268.529 190.000,269.788 188.585 C 271.163 187.040,271.458 186.947,272.371 187.774 C 273.333 188.645,303.550 188.871,304.582 188.015 C 305.464 187.283,306.474 188.400,306.376 190.000 C 306.274 191.672,306.375 192.000,306.992 192.000 C 307.318 192.000,307.691 191.505,307.820 190.900 C 308.526 187.600,308.780 187.503,311.644 189.429 C 314.267 191.195,315.590 189.833,315.598 185.360 C 315.599 184.678,315.777 183.598,315.992 182.960 C 316.713 180.828,317.356 175.659,317.718 169.073 C 317.850 166.670,318.092 165.672,318.762 164.766 C 319.544 163.709,319.671 162.839,319.988 156.430 C 320.235 151.423,320.522 148.924,320.944 148.108 C 322.031 146.007,321.970 144.577,320.800 144.735 C 320.250 144.809,309.810 144.899,297.600 144.935 L 275.400 145.000 275.090 149.365 C 274.888 152.203,274.513 154.334,274.017 155.455 C 273.464 156.704,273.131 158.921,272.808 163.490 C 272.563 166.961,272.198 170.340,271.996 171.000 C 271.795 171.660,271.594 173.190,271.550 174.400 C 271.506 175.610,271.229 177.371,270.935 178.314 C 270.641 179.257,270.399 180.697,270.398 181.514 C 270.394 184.025,269.632 185.937,267.824 187.973 C 266.872 189.045,266.027 190.082,265.946 190.276 C 264.557 193.631,258.680 193.707,255.536 190.411 C 253.045 187.799,252.934 187.196,253.984 181.993 C 254.468 179.592,254.742 177.430,254.592 177.187 C 254.442 176.945,254.591 176.534,254.922 176.273 C 255.387 175.908,255.635 174.067,256.007 168.200 C 256.346 162.863,256.654 160.412,257.045 159.969 C 257.423 159.539,257.603 158.261,257.610 155.969 C 257.615 154.116,257.800 151.817,258.021 150.859 C 258.242 149.902,258.583 148.102,258.780 146.859 C 259.853 140.089,261.612 137.490,266.000 136.191 C 266.999 135.895,267.592 135.379,268.070 134.388 C 270.170 130.036,274.042 128.228,280.400 128.632 C 281.830 128.722,291.640 128.771,302.200 128.740 M104.000 131.335 C 106.090 131.340,111.580 131.313,116.200 131.277 C 132.866 131.145,146.524 131.590,147.300 132.292 C 148.931 133.765,148.090 136.861,145.912 137.408 C 144.525 137.756,139.600 142.377,139.600 143.330 C 139.600 144.227,100.553 144.151,97.236 143.248 C 94.997 142.638,94.762 142.891,94.630 146.052 C 94.287 154.303,93.849 160.255,93.557 160.628 C 93.373 160.863,93.019 162.393,92.772 164.028 C 92.524 165.662,92.050 167.952,91.719 169.114 C 91.387 170.277,90.978 172.797,90.808 174.714 C 90.639 176.632,90.298 178.707,90.050 179.326 C 89.803 179.945,89.600 181.522,89.600 182.831 C 89.600 186.866,85.900 191.750,82.059 192.784 C 81.192 193.018,80.379 193.477,80.254 193.804 C 79.840 194.883,79.547 194.711,75.208 190.848 C 74.032 189.801,73.136 188.620,72.981 187.914 C 72.602 186.190,73.603 177.124,74.255 176.369 C 74.581 175.991,74.800 174.796,74.800 173.393 C 74.800 172.103,74.980 170.047,75.199 168.824 C 75.419 167.601,75.876 163.770,76.215 160.311 C 76.553 156.851,77.180 152.441,77.606 150.511 C 78.033 148.580,78.387 146.499,78.391 145.887 C 78.396 145.274,78.669 144.672,79.000 144.545 C 79.405 144.389,79.600 143.753,79.600 142.583 C 79.600 139.329,80.631 138.201,85.279 136.369 C 87.698 135.415,89.141 135.868,90.570 138.027 C 91.201 138.980,91.924 139.600,92.406 139.600 C 93.686 139.600,93.357 138.188,91.772 136.881 C 89.121 134.696,90.776 131.448,94.431 131.664 C 95.570 131.731,96.204 131.588,96.321 131.236 C 96.454 130.837,96.953 130.783,98.349 131.017 C 99.367 131.188,101.910 131.331,104.000 131.335 M198.800 131.245 C 225.375 130.967,233.110 131.162,234.943 132.157 C 236.829 133.182,237.600 133.819,237.600 134.353 C 237.600 135.397,234.019 139.119,232.140 140.029 C 231.118 140.524,229.643 141.635,228.863 142.499 L 227.444 144.070 208.622 143.943 C 189.995 143.817,189.781 143.806,187.942 142.908 C 186.920 142.408,185.978 142.000,185.848 142.000 C 184.041 142.000,180.400 138.219,180.400 136.341 C 180.400 133.836,184.577 130.501,187.000 131.073 C 187.660 131.229,192.970 131.307,198.800 131.245 M244.294 139.718 C 245.563 140.868,245.686 142.326,244.991 148.000 C 244.655 150.750,244.212 154.364,244.007 156.032 C 243.802 157.700,243.464 159.821,243.256 160.747 C 243.049 161.672,242.971 163.458,243.083 164.715 C 243.243 166.498,243.058 167.703,242.240 170.200 C 240.939 174.169,239.877 180.127,240.204 181.616 C 240.769 184.190,239.151 187.207,237.856 185.994 C 236.446 184.674,234.288 187.222,234.871 189.519 C 235.714 192.841,233.823 193.509,231.246 190.800 C 229.384 188.843,228.800 188.784,228.800 190.553 C 228.800 191.569,228.999 191.959,229.598 192.115 C 232.198 192.795,228.684 200.800,225.785 200.800 C 225.601 200.800,225.080 201.131,224.626 201.536 C 222.996 202.989,220.127 203.165,198.317 203.148 C 186.721 203.139,177.046 203.248,176.817 203.390 C 176.568 203.544,176.400 205.458,176.400 208.151 C 176.400 210.878,176.174 213.433,175.826 214.627 C 175.511 215.712,175.128 218.310,174.976 220.400 C 174.823 222.490,174.524 224.537,174.309 224.948 C 174.095 225.360,173.765 227.478,173.576 229.655 C 173.387 231.831,172.685 235.650,172.016 238.139 C 170.583 243.472,170.458 245.038,171.500 244.573 C 171.885 244.401,180.120 244.216,189.800 244.163 C 199.481 244.109,207.853 243.952,208.405 243.813 C 208.976 243.670,210.048 243.828,210.892 244.181 C 211.707 244.521,213.258 244.800,214.338 244.800 C 216.458 244.800,218.751 245.577,219.581 246.577 C 220.198 247.320,221.255 247.385,221.920 246.720 C 222.599 246.041,222.519 245.459,221.600 244.400 C 220.710 243.373,220.611 242.701,221.192 241.616 C 221.476 241.084,221.421 240.750,220.992 240.393 C 220.302 239.821,220.255 238.573,220.782 234.877 C 220.992 233.405,221.461 229.950,221.825 227.200 C 222.189 224.450,222.917 220.040,223.443 217.401 C 223.969 214.761,224.400 211.768,224.400 210.749 C 224.400 209.285,224.588 208.764,225.300 208.258 C 226.135 207.666,226.149 207.588,225.500 207.190 C 223.896 206.205,225.667 203.125,230.265 198.900 C 232.858 196.518,238.116 199.138,237.389 202.450 C 237.020 204.128,236.107 204.347,235.043 203.013 C 234.096 201.825,232.965 201.757,232.279 202.846 C 231.631 203.876,232.236 204.800,233.559 204.800 C 235.638 204.800,236.680 206.601,236.274 209.496 C 235.778 213.040,234.793 219.596,234.395 222.000 C 234.159 223.430,233.796 225.950,233.589 227.600 C 233.382 229.250,233.042 231.320,232.834 232.200 C 232.625 233.080,232.328 235.150,232.174 236.800 C 232.021 238.450,231.651 240.280,231.354 240.868 C 231.056 241.455,230.833 242.839,230.858 243.944 C 230.957 248.320,226.323 252.885,224.542 250.167 C 224.038 249.399,223.780 249.285,223.349 249.642 C 222.569 250.290,222.669 251.507,223.600 252.691 C 226.682 256.609,221.624 261.104,213.986 261.233 C 200.713 261.458,168.284 261.201,166.137 260.854 C 161.247 260.064,158.497 256.652,160.786 254.215 C 161.643 253.303,161.860 252.400,161.223 252.400 C 161.015 252.400,160.585 252.772,160.266 253.227 C 159.043 254.973,155.530 253.044,154.219 249.907 C 153.402 247.951,153.436 247.389,154.457 246.008 C 155.130 245.099,155.348 244.130,155.471 241.524 C 155.557 239.696,155.801 237.222,156.014 236.027 C 156.226 234.831,156.400 233.031,156.399 232.027 C 156.398 231.022,156.655 229.030,156.969 227.600 C 157.283 226.170,157.840 222.481,158.206 219.401 C 158.572 216.322,159.020 213.712,159.200 213.600 C 159.380 213.489,159.640 211.868,159.777 209.999 C 160.339 202.352,160.324 202.410,162.137 200.694 C 164.784 198.188,168.853 195.600,170.147 195.600 C 171.268 195.600,171.295 195.554,171.050 194.021 C 170.852 192.786,170.942 192.360,171.460 192.070 C 172.044 191.744,172.001 191.619,171.103 191.031 C 170.542 190.663,169.999 190.038,169.895 189.642 C 169.789 189.238,169.194 188.819,168.540 188.688 C 167.595 188.499,167.164 188.012,166.273 186.127 L 165.173 183.800 166.019 181.000 C 167.121 177.355,167.952 171.996,168.190 167.000 C 168.373 163.171,168.971 159.062,170.229 153.000 C 170.549 151.460,170.814 149.120,170.819 147.800 C 170.824 146.469,171.083 144.954,171.400 144.400 C 171.714 143.850,171.978 143.026,171.986 142.570 C 172.054 138.557,178.877 138.199,180.841 142.105 C 181.310 143.037,181.919 144.070,182.195 144.400 C 182.576 144.855,182.619 146.018,182.371 149.200 C 182.192 151.510,182.035 154.879,182.022 156.686 C 182.003 159.499,181.890 160.031,181.235 160.382 C 180.621 160.710,180.419 161.407,180.216 163.896 C 179.799 169.012,178.370 178.128,177.337 182.261 C 177.198 182.817,177.417 183.417,177.957 183.957 L 178.792 184.792 177.396 185.376 C 176.331 185.821,176.000 186.195,176.000 186.956 C 176.000 188.515,176.697 188.584,178.862 187.238 C 180.834 186.012,180.905 185.999,183.370 186.454 C 185.455 186.838,186.361 186.805,188.778 186.259 C 190.375 185.899,191.889 185.738,192.141 185.902 C 192.393 186.066,199.980 186.290,209.000 186.400 C 223.678 186.579,225.536 186.674,226.691 187.306 L 227.982 188.011 228.224 186.906 C 228.358 186.298,228.570 185.530,228.696 185.200 C 228.823 184.870,228.886 184.356,228.836 184.059 C 228.787 183.761,228.861 183.221,229.001 182.859 C 229.141 182.496,229.327 179.665,229.413 176.566 C 229.499 173.468,229.781 170.408,230.040 169.766 C 230.481 168.671,231.014 164.786,231.354 160.177 C 231.542 157.629,231.809 155.827,232.911 149.665 C 233.771 144.850,233.823 144.718,235.029 144.214 C 235.709 143.929,236.611 143.265,237.033 142.738 C 237.455 142.210,238.374 141.374,239.076 140.879 C 239.778 140.384,240.463 139.630,240.599 139.204 C 240.911 138.221,242.956 138.505,244.294 139.718 M154.747 140.248 C 155.749 140.950,155.779 142.352,154.865 145.793 C 154.633 146.669,154.237 150.179,153.985 153.593 C 153.734 157.007,153.374 160.160,153.185 160.600 C 152.884 161.302,152.579 163.494,151.823 170.400 C 151.599 172.452,150.777 175.514,150.215 176.396 C 150.006 176.723,149.811 178.433,149.783 180.196 C 149.722 183.976,148.853 186.040,146.569 187.836 C 144.700 189.306,144.000 189.985,144.000 190.329 C 143.999 190.799,140.952 190.623,140.342 190.117 C 138.129 188.284,137.182 178.475,139.038 176.619 C 139.537 176.120,139.932 172.775,140.809 161.600 C 141.254 155.927,141.513 154.192,142.183 152.400 C 142.717 150.969,143.723 147.474,144.167 145.500 C 144.323 144.809,144.678 144.400,145.121 144.400 C 145.510 144.400,146.797 143.419,147.981 142.219 C 149.166 141.019,150.510 139.964,150.968 139.873 C 152.764 139.518,153.861 139.627,154.747 140.248 M318.400 162.576 C 318.400 163.988,317.650 165.775,317.583 164.524 C 317.573 164.346,317.417 163.435,317.236 162.500 C 316.944 160.990,316.991 160.800,317.654 160.800 C 318.270 160.800,318.400 161.109,318.400 162.576 M236.375 176.815 C 235.928 177.092,235.959 177.209,236.538 177.432 C 236.932 177.583,237.434 177.526,237.654 177.306 C 238.190 176.770,237.116 176.358,236.375 176.815 M96.645 187.900 C 97.048 188.546,98.441 188.611,114.578 188.744 C 133.195 188.898,133.982 188.960,134.595 190.322 C 134.812 190.805,135.144 191.200,135.333 191.200 C 137.564 191.200,138.587 194.125,136.967 195.873 C 136.399 196.486,135.643 197.481,135.287 198.084 C 133.752 200.682,131.752 200.957,113.266 201.107 C 101.165 201.205,96.582 201.117,96.174 200.779 C 95.603 200.304,92.794 200.731,90.325 201.668 C 89.202 202.095,86.962 200.442,86.290 198.691 C 86.144 198.311,85.818 198.000,85.566 198.000 C 85.079 198.000,85.133 198.341,86.196 202.000 C 86.726 203.824,86.762 204.716,86.407 207.222 C 86.172 208.884,85.712 212.484,85.385 215.222 C 84.584 221.922,84.207 223.953,83.660 224.500 C 83.407 224.753,83.200 226.087,83.200 227.464 C 83.200 230.997,82.401 235.941,81.721 236.622 C 81.390 236.953,81.012 238.524,80.831 240.324 C 80.657 242.052,80.221 243.902,79.856 244.458 C 79.001 245.764,79.258 245.959,81.311 245.560 C 86.713 244.510,111.182 244.004,119.400 244.773 C 128.134 245.590,128.800 245.765,128.800 247.249 C 128.800 247.662,128.990 248.000,129.223 248.000 C 130.924 248.000,135.011 255.364,133.800 256.249 C 133.406 256.537,132.764 257.487,132.373 258.360 C 131.047 261.322,132.007 261.210,105.576 261.484 C 87.337 261.674,80.803 261.608,76.759 261.196 C 70.817 260.590,71.155 260.845,70.267 256.300 C 69.918 254.516,69.655 254.000,69.096 254.000 C 65.250 254.000,62.827 247.738,64.741 242.746 C 64.963 242.167,65.258 239.917,65.395 237.746 C 65.533 235.576,65.893 232.630,66.195 231.200 C 66.989 227.438,67.542 223.157,67.814 218.677 C 67.945 216.520,68.310 214.022,68.626 213.127 C 68.942 212.232,69.200 210.433,69.200 209.130 C 69.200 207.827,69.455 206.268,69.766 205.666 C 70.077 205.065,70.458 203.896,70.613 203.069 C 70.796 202.097,71.260 201.324,71.927 200.883 C 72.495 200.507,73.751 199.390,74.719 198.400 L 76.479 196.600 80.340 196.400 L 84.200 196.200 84.332 195.000 C 84.488 193.584,85.832 192.000,86.878 192.000 C 87.285 192.000,87.821 191.553,88.070 191.007 C 88.388 190.308,88.949 189.943,89.961 189.776 C 92.033 189.435,93.442 188.837,94.233 187.963 C 95.095 187.011,96.073 186.985,96.645 187.900 M270.957 191.367 C 270.626 192.229,271.087 193.304,271.700 193.100 C 271.975 193.008,272.200 192.513,272.200 192.000 C 272.200 190.904,271.309 190.450,270.957 191.367 M315.292 191.275 C 315.539 192.017,316.400 192.140,316.400 191.433 C 316.400 191.085,316.115 190.800,315.767 190.800 C 315.418 190.800,315.205 191.014,315.292 191.275 M318.405 194.588 C 316.970 197.937,318.103 198.919,320.853 196.709 C 322.565 195.334,323.078 193.205,321.700 193.195 C 321.315 193.192,320.597 193.081,320.105 192.949 C 319.337 192.743,319.096 192.976,318.405 194.588 M268.500 194.665 C 267.872 194.918,267.846 196.257,268.461 196.638 C 269.043 196.997,270.017 195.710,269.730 194.961 C 269.505 194.374,269.326 194.331,268.500 194.665 M312.881 198.902 C 312.652 199.178,312.342 199.892,312.192 200.488 C 311.866 201.787,310.901 202.171,309.397 201.599 C 308.163 201.130,273.733 200.941,271.954 201.394 C 271.378 201.540,270.145 201.454,269.213 201.204 C 267.039 200.618,267.082 200.545,267.167 204.755 C 267.223 207.536,267.108 208.412,266.655 208.669 C 266.259 208.893,266.015 209.904,265.898 211.800 C 265.587 216.884,264.716 223.792,264.326 224.275 C 264.116 224.537,263.859 225.707,263.755 226.875 C 263.492 229.851,262.787 235.389,262.339 238.000 C 262.132 239.210,261.863 241.010,261.742 242.000 C 261.621 242.990,261.360 243.971,261.161 244.180 C 260.370 245.012,260.762 245.595,261.838 245.185 C 264.187 244.293,281.554 243.961,295.690 244.539 C 303.134 244.843,304.046 244.811,304.637 244.220 C 305.248 243.609,305.347 243.609,306.022 244.220 C 307.024 245.126,307.600 244.632,307.600 242.865 C 307.600 242.047,307.844 241.023,308.141 240.589 C 308.446 240.145,308.806 238.051,308.965 235.800 C 309.533 227.745,309.814 224.990,310.114 224.522 C 310.421 224.042,311.715 214.414,312.226 208.800 C 312.376 207.150,312.865 204.990,313.312 204.000 C 314.878 200.532,314.569 196.869,312.881 198.902 M144.453 200.404 C 146.211 202.185,147.621 207.152,146.608 207.994 C 146.227 208.310,145.997 209.189,145.992 210.349 C 145.988 211.367,145.698 213.730,145.349 215.600 C 144.302 221.206,144.204 223.968,145.030 224.572 C 145.863 225.181,145.544 226.385,144.475 226.665 C 143.597 226.894,142.930 229.843,142.634 234.800 C 142.333 239.823,142.363 239.749,140.468 240.177 C 138.362 240.653,138.156 241.797,140.100 242.218 C 143.311 242.915,141.658 249.605,138.200 249.904 C 137.540 249.961,136.345 250.113,135.546 250.242 C 133.476 250.576,132.457 249.895,132.149 247.973 C 131.981 246.920,131.603 246.218,131.047 245.926 C 129.934 245.340,129.556 244.736,129.841 244.000 C 130.151 243.198,131.173 230.848,131.188 227.714 C 131.195 226.346,131.452 224.636,131.761 223.914 C 132.260 222.744,133.072 217.585,134.035 209.461 C 134.215 207.946,134.682 206.265,135.080 205.701 C 136.310 203.958,137.180 202.623,137.456 202.054 C 138.258 200.401,143.281 199.216,144.453 200.404 M134.535 243.824 C 134.304 244.428,136.169 246.800,136.875 246.800 C 137.396 246.800,137.225 244.667,136.643 243.900 C 135.984 243.032,134.855 242.991,134.535 243.824 " stroke="none" fill="#040404" fill-rule="evenodd"></path><path id="path4" d="M274.421 130.777 C 273.442 130.941,272.579 131.263,272.503 131.492 C 272.426 131.722,271.633 132.655,270.741 133.565 C 268.837 135.507,268.854 136.731,270.807 138.425 C 271.457 138.988,272.178 139.990,272.408 140.651 C 272.698 141.482,273.410 142.155,274.714 142.827 L 276.600 143.800 298.113 143.913 L 319.626 144.027 322.028 142.179 C 325.795 139.280,329.187 135.992,329.437 134.997 C 329.766 133.683,327.954 130.961,326.574 130.697 C 324.867 130.371,276.403 130.445,274.421 130.777 M324.200 131.611 C 326.599 131.689,328.400 133.051,328.400 134.788 C 328.400 135.510,326.246 137.654,322.879 140.284 L 319.402 143.000 314.801 143.234 C 312.270 143.363,303.090 143.353,294.400 143.212 L 278.600 142.955 275.854 141.816 C 273.579 140.873,273.012 140.447,272.545 139.330 C 272.235 138.588,271.626 137.626,271.191 137.191 C 270.141 136.141,270.189 135.746,271.554 134.192 C 272.188 133.469,272.773 132.684,272.854 132.447 C 273.190 131.457,304.081 130.954,324.200 131.611 M84.496 138.261 C 81.980 139.501,80.962 141.154,80.439 144.849 C 80.177 146.692,79.701 149.370,79.380 150.800 C 78.803 153.371,77.046 165.607,76.365 171.800 C 76.171 173.560,75.740 176.731,75.406 178.848 C 74.267 186.081,74.497 187.273,77.748 190.979 C 79.401 192.864,79.730 192.789,83.483 189.666 C 87.497 186.325,88.023 184.906,89.577 173.200 C 90.732 164.507,91.290 160.884,91.609 160.000 C 91.808 159.450,92.275 155.877,92.648 152.059 C 93.424 144.093,93.458 144.238,90.046 140.669 C 87.224 137.716,86.361 137.342,84.496 138.261 M264.400 138.714 C 263.410 139.345,262.394 140.297,262.142 140.831 C 261.242 142.738,260.400 145.444,260.406 146.413 C 260.409 146.956,260.044 149.740,259.594 152.600 C 259.145 155.460,258.607 158.880,258.398 160.200 C 257.032 168.871,256.439 173.539,256.219 177.356 C 256.081 179.752,255.780 182.585,255.551 183.652 C 254.883 186.768,257.693 192.000,260.034 192.000 C 261.782 192.000,268.363 185.597,268.413 183.850 C 268.420 183.602,268.683 181.690,268.998 179.600 C 269.313 177.510,269.848 173.919,270.187 171.620 C 270.526 169.321,271.072 166.351,271.400 165.020 C 271.729 163.689,272.164 160.440,272.367 157.800 C 272.570 155.160,272.963 151.271,273.241 149.159 C 273.848 144.554,273.568 143.709,270.297 140.249 C 267.653 137.452,266.750 137.217,264.400 138.714 M331.400 138.740 C 330.740 139.146,328.999 140.540,327.531 141.839 C 326.063 143.137,324.488 144.470,324.031 144.800 C 323.187 145.409,323.037 146.003,321.440 155.000 C 321.089 156.980,320.619 160.940,320.396 163.800 C 320.173 166.660,319.730 170.170,319.411 171.600 C 318.807 174.312,318.095 179.813,317.728 184.600 C 317.527 187.212,317.583 187.475,318.557 188.522 C 319.132 189.138,319.869 190.161,320.196 190.793 C 321.370 193.062,323.305 192.743,326.746 189.714 C 330.388 186.506,331.170 184.265,332.572 173.000 C 333.368 166.603,334.333 159.837,335.433 152.929 C 337.436 140.356,336.147 135.824,331.400 138.740 M87.166 139.182 C 87.558 139.392,88.875 140.787,90.091 142.282 L 92.303 145.000 92.006 149.400 C 91.843 151.820,91.310 156.230,90.822 159.200 C 89.634 166.415,88.966 170.839,88.193 176.600 C 87.147 184.404,85.942 187.079,82.600 189.019 C 81.940 189.402,80.992 190.084,80.493 190.534 L 79.586 191.353 78.374 189.976 C 75.491 186.701,75.309 183.024,77.425 170.800 C 77.749 168.930,78.277 165.060,78.599 162.200 C 78.921 159.340,79.441 155.874,79.755 154.498 C 80.069 153.121,80.453 150.291,80.610 148.208 C 80.785 145.873,81.096 144.252,81.421 143.982 C 81.711 143.742,82.063 143.025,82.202 142.389 C 82.692 140.159,85.546 138.315,87.166 139.182 M269.323 140.800 C 270.336 141.900,271.317 142.800,271.502 142.800 C 272.416 142.800,272.787 145.514,272.408 149.421 C 272.195 151.609,272.016 154.665,272.010 156.211 C 272.004 157.903,271.785 159.336,271.458 159.811 C 270.903 160.621,270.792 161.189,269.793 168.400 C 267.713 183.412,267.235 185.117,264.342 187.841 C 260.676 191.294,260.272 191.378,258.047 189.153 L 256.400 187.506 256.425 183.453 C 256.453 178.795,256.792 175.594,257.912 169.400 C 258.350 166.980,258.917 163.380,259.172 161.400 C 259.428 159.420,259.886 156.180,260.191 154.200 C 260.496 152.220,260.935 149.207,261.167 147.504 C 261.399 145.801,261.744 144.091,261.935 143.704 C 262.126 143.317,262.593 142.351,262.973 141.557 C 263.636 140.174,265.467 138.880,266.840 138.826 C 267.193 138.812,268.310 139.700,269.323 140.800 M334.573 139.661 C 336.192 140.398,336.350 143.849,335.026 149.539 C 334.480 151.886,333.772 156.801,332.395 167.800 C 330.195 185.372,329.302 187.698,323.677 190.524 C 321.445 191.645,321.121 191.553,320.457 189.617 C 320.197 188.857,319.598 187.824,319.126 187.322 C 318.237 186.375,318.580 178.706,319.597 176.805 C 319.795 176.435,320.164 172.998,320.416 169.166 C 320.668 165.335,321.114 161.570,321.406 160.800 C 321.698 160.030,322.162 157.428,322.438 155.017 C 323.066 149.524,324.377 145.173,325.593 144.544 C 326.079 144.294,327.134 143.468,327.938 142.710 C 331.558 139.299,332.664 138.791,334.573 139.661 M184.800 188.000 C 180.050 188.207,176.400 189.509,176.400 190.998 C 176.400 191.286,175.781 191.886,175.025 192.332 C 171.902 194.175,172.088 196.989,175.539 200.100 L 177.202 201.600 198.587 201.600 C 223.380 201.600,222.399 201.727,226.073 198.037 C 228.331 195.768,229.246 193.914,228.559 192.998 C 228.362 192.735,227.706 191.777,227.101 190.870 C 225.141 187.927,226.128 188.070,206.800 187.928 C 197.230 187.858,187.330 187.890,184.800 188.000 M209.000 188.806 L 224.200 188.838 225.900 190.964 C 228.281 193.942,228.141 194.878,224.861 197.910 C 221.914 200.635,222.252 200.600,198.545 200.600 L 177.290 200.600 175.854 199.200 C 173.096 196.510,173.129 195.089,176.014 192.400 C 179.891 188.787,181.754 188.337,191.400 188.687 C 192.720 188.735,200.640 188.788,209.000 188.806 M77.356 198.638 C 74.735 200.387,72.404 202.898,72.013 204.393 C 71.154 207.675,69.603 217.410,67.999 229.600 C 67.752 231.470,67.304 234.710,67.001 236.800 C 64.748 252.382,66.452 255.294,73.983 248.729 C 79.137 244.236,79.781 243.000,80.399 236.406 C 80.576 234.528,81.005 231.554,81.353 229.796 C 81.963 226.714,83.949 213.815,84.774 207.570 C 85.384 202.950,84.465 200.661,81.158 198.574 C 79.252 197.370,79.256 197.370,77.356 198.638 M166.352 199.365 C 162.128 202.681,161.194 205.313,160.196 216.713 C 159.857 220.579,159.425 223.935,159.236 224.171 C 159.046 224.407,158.590 227.120,158.222 230.200 C 157.854 233.280,157.380 236.790,157.169 238.000 C 156.516 241.736,156.029 247.734,156.266 249.107 C 156.613 251.119,159.412 252.876,160.210 251.584 C 160.351 251.355,161.133 250.747,161.947 250.233 C 167.100 246.980,169.606 243.412,170.397 238.200 C 170.564 237.100,171.192 233.230,171.792 229.600 C 175.791 205.421,175.869 202.256,172.541 199.188 C 170.259 197.085,169.219 197.115,166.352 199.365 M258.000 198.303 C 254.101 201.021,252.236 203.797,251.619 207.800 C 250.922 212.322,250.467 215.564,249.992 219.400 C 249.747 221.380,249.288 224.399,248.973 226.108 C 248.658 227.818,248.400 229.745,248.400 230.391 C 248.400 231.037,247.950 234.353,247.400 237.761 C 245.753 247.964,246.237 252.000,249.105 252.000 C 251.133 252.000,258.974 245.126,259.599 242.800 C 260.175 240.654,261.911 230.897,262.196 228.200 C 262.335 226.880,262.612 224.990,262.811 224.000 C 263.911 218.526,265.570 204.422,265.287 202.944 C 264.683 199.784,260.080 196.852,258.000 198.303 M321.603 198.048 C 321.055 198.267,320.464 198.700,320.290 199.010 C 320.117 199.321,319.342 199.875,318.569 200.241 C 317.796 200.608,316.598 201.731,315.906 202.737 C 314.641 204.575,314.291 205.842,313.621 211.000 C 313.421 212.540,312.871 216.500,312.399 219.800 C 311.927 223.100,311.375 226.970,311.172 228.400 C 310.631 232.218,309.565 241.942,309.478 243.857 C 309.397 245.635,314.082 251.601,315.830 251.946 C 320.001 252.767,323.149 244.378,324.591 228.600 C 324.731 227.060,325.009 225.260,325.207 224.600 C 325.540 223.493,327.424 209.612,327.867 205.000 C 328.095 202.630,326.552 199.769,324.308 198.401 C 322.829 197.499,322.943 197.514,321.603 198.048 M80.400 199.256 C 80.400 199.460,81.002 199.982,81.737 200.416 C 83.907 201.696,84.654 205.146,83.630 209.154 C 83.427 209.949,82.967 213.030,82.608 216.000 C 81.738 223.207,81.773 222.967,81.055 226.467 C 80.709 228.154,80.248 231.728,80.031 234.409 C 79.800 237.260,79.405 239.641,79.079 240.142 C 78.772 240.614,78.401 241.647,78.254 242.437 C 77.950 244.078,72.908 249.198,70.228 250.587 L 68.709 251.375 67.700 250.202 C 66.542 248.856,66.568 245.710,67.801 237.800 C 68.144 235.600,68.597 231.776,68.808 229.302 C 69.019 226.827,69.357 224.487,69.559 224.102 C 69.935 223.384,70.967 216.422,71.442 211.400 C 71.588 209.860,71.847 208.420,72.018 208.200 C 72.189 207.980,72.456 207.080,72.613 206.200 C 73.293 202.375,80.400 196.038,80.400 199.256 M172.685 200.800 C 174.264 202.650,174.525 203.933,174.022 207.352 C 173.791 208.918,173.318 212.450,172.971 215.200 C 172.115 221.992,171.763 224.414,171.058 228.400 C 170.727 230.270,170.234 233.600,169.961 235.800 C 169.281 241.296,168.226 243.558,164.936 246.577 C 157.329 253.557,155.479 251.053,158.157 237.400 C 158.502 235.640,158.790 233.210,158.798 232.000 C 158.805 230.790,159.080 229.031,159.407 228.091 C 159.735 227.150,160.186 223.640,160.411 220.291 C 160.635 216.941,161.009 213.569,161.241 212.797 C 161.474 212.025,161.968 209.817,162.339 207.890 C 163.786 200.382,169.177 196.688,172.685 200.800 M262.853 200.914 L 264.436 202.917 264.173 207.358 C 264.029 209.801,263.586 213.510,263.190 215.600 C 262.794 217.690,262.350 220.840,262.205 222.600 C 262.060 224.360,261.414 228.382,260.771 231.537 C 260.127 234.692,259.600 237.876,259.600 238.613 C 259.600 239.350,259.420 240.064,259.200 240.200 C 258.980 240.336,258.800 240.956,258.800 241.578 C 258.800 242.605,255.576 247.196,254.851 247.202 C 254.713 247.203,253.918 247.831,253.083 248.597 C 248.156 253.122,245.672 248.768,247.949 239.600 C 248.195 238.610,248.579 236.090,248.802 234.000 C 249.025 231.910,249.384 229.210,249.600 228.000 C 249.816 226.790,250.179 224.270,250.406 222.400 C 250.633 220.530,251.076 217.470,251.391 215.600 C 251.706 213.730,252.167 210.670,252.415 208.800 C 252.898 205.163,253.469 203.933,255.874 201.351 C 259.015 197.979,260.461 197.889,262.853 200.914 M325.211 200.700 L 326.891 202.600 326.658 206.200 C 326.531 208.180,326.256 211.060,326.048 212.600 C 325.839 214.140,325.453 217.200,325.188 219.400 C 324.924 221.600,324.562 223.760,324.385 224.200 C 324.207 224.640,323.956 226.458,323.826 228.240 C 323.697 230.022,323.237 233.082,322.804 235.040 C 322.371 236.998,322.013 239.464,322.009 240.520 C 322.004 241.576,321.760 242.926,321.466 243.520 C 321.172 244.114,320.712 245.623,320.443 246.874 C 320.025 248.818,319.751 249.268,318.554 249.974 C 316.300 251.304,315.657 251.072,312.853 247.921 L 310.306 245.058 310.577 240.629 C 310.726 238.193,311.184 234.130,311.595 231.600 C 312.005 229.070,312.456 225.830,312.596 224.400 C 312.736 222.970,313.190 219.910,313.605 217.600 C 314.019 215.290,314.544 211.913,314.770 210.095 C 315.348 205.457,316.437 203.136,318.848 201.404 C 319.922 200.632,320.800 199.834,320.800 199.628 C 320.800 199.299,321.602 199.026,323.066 198.854 C 323.322 198.825,324.288 199.655,325.211 200.700 M184.379 245.738 C 184.280 245.827,181.569 245.996,178.354 246.112 C 171.745 246.351,171.409 246.462,167.546 249.676 C 161.694 254.547,161.253 255.383,163.339 257.654 C 165.208 259.689,165.525 259.711,191.800 259.710 C 218.570 259.708,218.254 259.733,220.642 257.380 C 223.272 254.787,222.850 253.444,217.724 248.093 L 216.200 246.502 210.600 246.240 C 203.096 245.889,184.603 245.535,184.379 245.738 M85.498 246.424 C 81.700 246.697,81.051 246.854,79.967 247.767 C 79.291 248.335,78.590 248.800,78.409 248.800 C 77.891 248.800,71.600 255.259,71.600 255.791 C 71.600 256.052,72.191 256.950,72.912 257.785 C 74.711 259.865,75.841 259.944,104.240 259.975 L 127.480 260.000 129.040 258.854 C 131.638 256.946,132.516 255.796,132.183 254.734 C 131.803 253.520,129.664 250.400,129.212 250.400 C 129.019 250.400,128.650 249.759,128.392 248.975 C 128.084 248.044,127.554 247.409,126.861 247.143 C 124.440 246.212,95.467 245.709,85.498 246.424 M265.353 246.374 C 261.555 246.666,260.653 247.161,255.396 251.838 C 251.584 255.229,251.454 255.601,253.352 257.668 C 255.281 259.768,255.706 259.800,281.200 259.799 C 307.437 259.798,308.629 259.714,310.839 257.717 C 313.497 255.316,311.699 250.330,307.131 247.438 C 305.179 246.201,276.945 245.482,265.353 246.374 M122.782 247.625 C 125.679 248.052,128.000 248.900,128.000 249.531 C 128.000 249.701,128.720 250.949,129.600 252.303 C 131.357 255.007,131.560 255.902,130.500 256.264 C 130.115 256.396,129.318 257.065,128.729 257.752 L 127.658 259.000 104.129 259.000 C 77.413 259.000,75.563 258.898,73.924 257.327 C 73.306 256.735,72.802 256.059,72.804 255.825 C 72.810 255.138,77.796 250.140,79.674 248.939 C 81.511 247.764,81.660 247.726,86.600 247.193 C 90.866 246.733,119.007 247.069,122.782 247.625 M212.274 247.168 C 215.483 247.541,216.003 247.855,219.119 251.304 C 221.091 253.487,221.998 256.000,220.814 256.000 C 220.602 256.000,219.763 256.584,218.951 257.297 L 217.474 258.594 193.437 258.663 C 166.201 258.742,166.265 258.746,164.162 256.825 L 162.656 255.450 166.028 252.310 C 169.876 248.727,171.739 247.614,174.592 247.195 C 177.390 246.784,208.765 246.762,212.274 247.168 M305.540 247.891 C 306.717 248.304,307.871 248.993,308.103 249.421 C 308.336 249.850,309.218 251.035,310.063 252.056 C 312.127 254.548,312.073 255.525,309.780 257.171 L 307.960 258.479 295.680 258.847 C 284.208 259.192,259.814 259.014,256.903 258.565 C 256.190 258.455,254.935 257.750,254.114 256.998 L 252.621 255.630 255.111 253.315 C 262.323 246.611,261.337 246.811,286.200 247.005 C 301.796 247.127,303.600 247.209,305.540 247.891 " stroke="none" fill="#9d1113" fill-rule="evenodd"></path></g></svg>